<?xml version="1.0" encoding="utf-8"?>
<!-- Generator: Adobe Illustrator 16.0.0, SVG Export Plug-In . SVG Version: 6.00 Build 0)  -->
<!DOCTYPE svg PUBLIC "-//W3C//DTD SVG 1.1//EN" "http://www.w3.org/Graphics/SVG/1.1/DTD/svg11.dtd">
<svg version="1.1" id="Calque_1" xmlns="http://www.w3.org/2000/svg" xmlns:xlink="http://www.w3.org/1999/xlink" x="0px" y="0px"
	 width="600px" height="300px" viewBox="0 0 600 300" enable-background="new 0 0 600 300" xml:space="preserve">
<g>
	<g>
		<g>
			<path fill="#FFFFFF" d="M99.164,82.374v120.705l16.405,34.975l-26.926,13.309L62.025,215.77V82.374H10.028V48.638h140.203v33.736
				H99.164z"/>
		</g>
		<circle fill="#FFFFFF" cx="173.787" cy="150" r="29.796"/>
		<g>
			<path fill="#FFFFFF" d="M236.853,58.014c0-1.521,0.522-2.854,1.568-3.994c1.044-1.141,2.519-1.711,4.422-1.711h23.389
				c1.52,0,2.896,0.478,4.136,1.426c1.232,0.954,1.853,2.381,1.853,4.279v139.764c0,3.993,1.426,7.415,4.279,10.268
				s6.276,4.278,10.268,4.278h2.282c1.52,0,2.852,0.621,3.994,1.855c1.141,1.239,1.711,2.807,1.711,4.707v23.102
				c0,3.423-1.903,5.322-5.705,5.705h-2.282c-6.845,0-13.312-1.282-19.396-3.85c-6.088-2.566-11.41-6.133-15.973-10.696
				c-4.563-4.563-8.129-9.887-10.697-15.975c-2.567-6.083-3.851-12.55-3.851-19.395V58.014H236.853z"/>
			<path fill="#FFFFFF" d="M315.292,107.929c0-1.52,0.472-2.852,1.426-3.993c0.949-1.141,2.375-1.711,4.278-1.711h23.391
				c1.328,0,2.708,0.525,4.134,1.568c1.427,1.048,2.141,2.423,2.141,4.136v131.207c0,3.807-2.095,5.705-6.276,5.705h-23.39
				c-3.807,0-5.704-1.898-5.704-5.705L315.292,107.929L315.292,107.929z"/>
			<path fill="#FFFFFF" d="M370.341,107.929c0-1.52,0.475-2.852,1.426-3.993c0.952-1.141,2.378-1.711,4.281-1.711h23.388
				c-0.192,0,0.663,0.192,2.566,0.57c2.856-0.949,5.801-1.757,8.845-2.424c3.038-0.665,6.176-0.997,9.412-0.997
				c6.845,0,13.309,1.282,19.394,3.85c6.086,2.566,11.41,6.133,15.975,10.695c4.563,4.564,8.129,9.891,10.697,15.973
				c2.566,6.087,3.848,12.551,3.848,19.396v89.848c0,1.524-0.618,2.852-1.852,3.993c-1.239,1.141-2.617,1.711-4.137,1.711h-23.673
				c-1.524,0-2.855-0.472-3.997-1.426c-1.141-0.949-1.711-2.375-1.711-4.278v-89.848c0-3.803-1.426-7.177-4.278-10.127
				c-2.852-2.945-6.274-4.421-10.266-4.421c-3.807,0-7.183,1.427-10.128,4.279c-2.949,2.853-4.418,6.181-4.418,9.983v90.133
				c0,3.807-2,5.704-5.994,5.704h-23.672c-3.807,0-5.707-1.897-5.707-5.704L370.341,107.929L370.341,107.929z"/>
			<path fill="#FFFFFF" d="M485.007,58.014c0-1.328,0.472-2.612,1.426-3.851c0.949-1.235,2.185-1.854,3.708-1.854h24.532
				c1.327,0,2.612,0.57,3.848,1.711c1.237,1.141,1.855,2.473,1.855,3.994v81.861l23.96-35.369c0.949-1.519,2.47-2.281,4.565-2.281
				h29.948c1.329,0,2.609,0.427,3.85,1.283c1.233,0.855,1.854,2.045,1.854,3.565c0-0.187-0.192,0.477-0.57,1.996l-39.933,59.613
				l45.065,67.886c0.57,0.955,0.855,1.905,0.855,2.853c0,1.524-0.621,2.809-1.855,3.852c-1.235,1.048-2.807,1.567-4.703,1.567
				h-28.238c-0.571,0-1.285-0.142-2.141-0.427c-0.855-0.286-1.666-0.9-2.422-1.854l-30.235-45.066v41.644
				c0,1.524-0.477,2.852-1.426,3.994c-0.954,1.141-2.381,1.711-4.278,1.711h-24.532c-3.422,0-5.134-1.898-5.134-5.705V58.014
				L485.007,58.014z"/>
		</g>
		<circle fill="#FFFFFF" cx="332.977" cy="75.152" r="21.779"/>
	</g>
</g>
</svg>
