<?xml version="1.0" encoding="utf-8"?>
<!-- Generator: Adobe Illustrator 16.0.0, SVG Export Plug-In . SVG Version: 6.00 Build 0)  -->
<!DOCTYPE svg PUBLIC "-//W3C//DTD SVG 1.1//EN" "http://www.w3.org/Graphics/SVG/1.1/DTD/svg11.dtd">
<svg version="1.1" id="Calque_1" xmlns="http://www.w3.org/2000/svg" xmlns:xlink="http://www.w3.org/1999/xlink" x="0px" y="0px"
	 width="600px" height="300px" viewBox="0 0 600 300" enable-background="new 0 0 600 300" xml:space="preserve">
<g>
	<g>
		<g>
			<path fill="#D92829" d="M123.077,100.448v88.445l12.02,25.626l-19.729,9.752l-19.504-26.08v-97.743h-38.1v-24.72h102.732v24.72
				H123.077z"/>
		</g>
		<circle fill="#D92829" cx="177.756" cy="150" r="21.833"/>
		<g>
			<path fill="#D92829" d="M223.966,82.598c0-1.114,0.382-2.09,1.149-2.926c0.765-0.836,1.846-1.254,3.24-1.254h17.138
				c1.113,0,2.122,0.35,3.03,1.045c0.904,0.699,1.358,1.744,1.358,3.135v102.41c0,2.926,1.045,5.434,3.135,7.523
				c2.091,2.09,4.599,3.135,7.524,3.135h1.672c1.113,0,2.09,0.455,2.926,1.359c0.836,0.908,1.254,2.057,1.254,3.449v16.928
				c0,2.508-1.394,3.9-4.18,4.18h-1.672c-5.016,0-9.754-0.939-14.212-2.82c-4.461-1.881-8.36-4.494-11.704-7.838
				s-5.956-7.244-7.838-11.705c-1.881-4.457-2.821-9.195-2.821-14.211V82.598z"/>
			<path fill="#D92829" d="M281.441,119.173c0-1.114,0.346-2.09,1.045-2.926c0.695-0.836,1.74-1.254,3.135-1.254h17.139
				c0.973,0,1.984,0.385,3.029,1.149c1.045,0.768,1.568,1.776,1.568,3.031v96.14c0,2.789-1.535,4.18-4.598,4.18h-17.139
				c-2.789,0-4.18-1.391-4.18-4.18V119.173z"/>
			<path fill="#D92829" d="M321.777,119.173c0-1.114,0.348-2.09,1.045-2.926s1.742-1.254,3.137-1.254h17.137
				c-0.141,0,0.486,0.141,1.881,0.418c2.092-0.695,4.25-1.287,6.48-1.776c2.227-0.487,4.525-0.731,6.896-0.731
				c5.016,0,9.752,0.94,14.211,2.821s8.361,4.494,11.705,7.837c3.344,3.344,5.957,7.247,7.838,11.704
				c1.881,4.46,2.82,9.196,2.82,14.212v65.834c0,1.117-0.453,2.09-1.357,2.926c-0.908,0.836-1.918,1.254-3.031,1.254h-17.346
				c-1.117,0-2.092-0.346-2.928-1.045c-0.836-0.695-1.254-1.74-1.254-3.135v-65.834c0-2.786-1.045-5.258-3.135-7.42
				c-2.09-2.158-4.598-3.239-7.523-3.239c-2.789,0-5.262,1.045-7.42,3.135c-2.162,2.09-3.238,4.529-3.238,7.315v66.043
				c0,2.789-1.465,4.18-4.391,4.18h-17.346c-2.789,0-4.182-1.391-4.182-4.18V119.173z"/>
			<path fill="#D92829" d="M405.797,82.598c0-0.973,0.346-1.914,1.045-2.821c0.695-0.905,1.6-1.359,2.717-1.359h17.975
				c0.973,0,1.914,0.418,2.82,1.254c0.906,0.836,1.359,1.812,1.359,2.926v59.983l17.557-25.916c0.695-1.113,1.809-1.672,3.344-1.672
				h21.945c0.973,0,1.912,0.313,2.82,0.94c0.904,0.627,1.359,1.499,1.359,2.613c0-0.137-0.141,0.349-0.418,1.463l-29.26,43.681
				l33.021,49.742c0.418,0.699,0.627,1.395,0.627,2.09c0,1.117-0.455,2.057-1.359,2.822c-0.906,0.768-2.057,1.148-3.447,1.148
				h-20.691c-0.418,0-0.941-0.104-1.568-0.313s-1.221-0.66-1.775-1.359l-22.154-33.021v30.514c0,1.117-0.35,2.09-1.045,2.926
				c-0.699,0.836-1.744,1.254-3.135,1.254h-17.975c-2.508,0-3.762-1.391-3.762-4.18V82.598z"/>
		</g>
		<circle fill="#D92829" cx="294.399" cy="95.156" r="15.958"/>
	</g>
	<rect x="499.236" y="63" width="43" height="174"/>
</g>
</svg>
